<svg width="135" height="36" viewBox="0 0 135 36" fill="none" xmlns="http://www.w3.org/2000/svg">
<path d="M130.738 31.4509C130.738 32.4462 131.003 33.1429 131.534 33.541C132.098 33.9391 132.928 34.2377 134.022 34.4367V35.1334H123.273V34.4367C124.401 34.2377 125.231 33.9391 125.762 33.541C126.326 33.1429 126.608 32.4462 126.608 31.4509V5.32475C126.608 4.46218 126.392 3.83183 125.961 3.43372C125.562 3.00243 124.916 2.7702 124.02 2.73702H122.825V2.04033L130.041 0H130.738V31.4509Z" fill="black"/>
<path d="M122.499 33.1433V33.84L115.283 35.8803H114.587V29.4607C113.857 31.4513 112.745 33.0271 111.252 34.1883C109.76 35.3163 108.068 35.8803 106.177 35.8803C104.219 35.8803 102.627 35.2831 101.399 34.0888C100.205 32.8944 99.6077 31.3352 99.6077 29.411C99.6077 27.7853 99.9726 26.4417 100.702 25.3801C101.466 24.2853 102.643 23.3729 104.236 22.643C105.861 21.9132 108.018 21.2828 110.705 20.752L114.587 20.0055V18.3136C114.587 15.9912 114.072 14.1666 113.044 12.8395C112.015 11.5125 110.589 10.849 108.764 10.849C107.305 10.849 106.127 11.33 105.231 12.2921C104.368 13.2542 103.937 14.4154 103.937 15.7756C103.937 16.6382 104.136 17.5008 104.534 18.3633L100.653 19.707C100.155 18.7117 99.9062 17.733 99.9062 16.7709C99.9062 15.4438 100.321 14.2163 101.15 13.0883C102.013 11.9604 103.191 11.0812 104.684 10.4508C106.177 9.78733 107.835 9.45557 109.66 9.45557C112.447 9.45557 114.653 10.2684 116.279 11.894C117.904 13.4865 118.717 15.6595 118.717 18.4131V30.5058C118.717 31.3683 118.916 31.9987 119.314 32.3968C119.746 32.7949 120.409 33.0271 121.305 33.0935L122.499 33.1433ZM114.587 21.4487L110.854 22.1952C108.466 22.6596 106.707 23.3729 105.579 24.335C104.451 25.2971 103.887 26.591 103.887 28.2166C103.887 29.61 104.302 30.7712 105.131 31.7001C105.961 32.5959 107.023 33.0437 108.316 33.0437C109.577 33.0437 110.771 32.5959 111.899 31.7001C113.027 30.7712 113.923 29.5602 114.587 28.0673V21.4487Z" fill="black"/>
<path d="M86.465 9.45517C88.4224 9.45517 90.1642 10.0192 91.6903 11.1471C93.2164 12.242 94.3941 13.7349 95.2235 15.6259C96.0529 17.4838 96.4676 19.5573 96.4676 21.8464C96.4676 24.7991 95.9368 27.3371 94.8752 29.4603C93.8135 31.5836 92.387 33.1926 90.5954 34.2874C88.8371 35.3491 86.8963 35.8799 84.773 35.8799C83.4128 35.8799 82.1356 35.5813 80.9412 34.9841C79.7801 34.387 78.7848 33.5244 77.9554 32.3964L75.0193 35.8799H74.3226V5.32475C74.3226 4.46218 74.1235 3.83183 73.7254 3.43372C73.3273 3.00243 72.6638 2.7702 71.7349 2.73702H70.5405V2.04033L77.7563 0H78.453V15.5761C79.1497 13.8178 80.1948 12.3581 81.5881 11.1969C83.0147 10.0357 84.6403 9.45517 86.465 9.45517ZM85.2209 34.1879C86.5148 34.1879 87.676 33.7234 88.7044 32.7945C89.766 31.8324 90.5789 30.5551 91.1429 28.9627C91.74 27.3702 92.0386 25.6285 92.0386 23.7375C92.0386 21.8132 91.7732 19.972 91.2424 18.2136C90.7116 16.4553 89.8987 15.0122 88.8039 13.8842C87.7423 12.723 86.3987 12.1424 84.773 12.1424C83.5124 12.1424 82.2683 12.6567 81.0407 13.6851C79.8132 14.6804 78.9507 15.8416 78.453 17.1686V26.5242C78.453 27.7849 78.7018 29.0124 79.1995 30.2068C79.6971 31.3679 80.4602 32.33 81.4886 33.0931C82.5171 33.823 83.7612 34.1879 85.2209 34.1879Z" fill="black"/>
<path d="M41.1663 31.4509C41.1663 32.4462 41.4317 33.1429 41.9625 33.541C42.5265 33.9391 43.3559 34.2377 44.4507 34.4367V35.1334H33.7017V34.4367C34.8296 34.2377 35.659 33.9391 36.1899 33.541C36.7539 33.1429 37.0359 32.4462 37.0359 31.4509V5.32475C37.0359 4.46218 36.8202 3.83183 36.3889 3.43372C35.9908 3.00243 35.3439 2.7702 34.4481 2.73702H33.2538V2.04033L40.4696 0H41.1663V31.4509Z" fill="black"/>
<path d="M69.1755 13.9548C68.3547 12.3131 67.2561 10.9854 65.8799 9.97159C65.4509 9.65559 64.8664 9.69506 64.4478 10.0246L63.8447 10.4994C63.2777 10.9458 63.2016 11.7716 63.6021 12.3719C64.3699 13.5227 64.967 14.8632 65.3934 16.3932C65.9242 18.417 66.1897 20.4573 66.1897 22.5142C66.1897 25.5664 65.5925 28.0546 64.3981 29.9788C63.1706 31.903 61.545 32.8652 59.5213 32.8652C57.7629 32.8652 56.2866 32.185 55.0923 30.8248C53.8979 29.4646 53.0354 27.7726 52.5045 25.7489C52.1205 24.3708 51.8672 23.0005 51.7447 21.6378C51.6633 20.7328 50.7327 20.1167 49.8951 20.4689L48.0576 21.2415C47.586 21.4397 47.275 21.9019 47.2983 22.4129C47.3959 24.5588 47.8706 26.4836 48.7225 28.1873C49.6846 30.1115 51.0448 31.6045 52.8031 32.6661C54.5283 33.7277 56.5022 34.2585 58.725 34.2585C61.0474 34.2585 63.1043 33.678 64.8958 32.5168C66.6873 31.3556 68.0973 29.73 69.1257 27.6399C70.121 25.583 70.6187 23.2109 70.6187 20.5237C70.6187 18.0686 70.1376 15.879 69.1755 13.9548Z" fill="black"/>
<path d="M15.7849 35.6135C12.7506 35.6135 10.023 34.8935 7.60195 33.4533C5.21323 32.0131 3.34098 30.0492 1.98522 27.5617C0.661741 25.0414 0 22.2756 0 19.2643C0 15.7621 0.661741 12.6526 1.98522 9.93593C3.34098 7.21924 5.26165 5.10808 7.74721 3.60245C10.2328 2.09681 13.1218 1.34399 16.4144 1.34399C19.4487 1.34399 22.0957 2.01498 24.3553 3.35696C26.6472 4.66621 28.1159 6.40096 28.7615 8.56122L24.5006 9.93593C23.9518 7.77567 22.8704 6.02455 21.2564 4.68258C19.6424 3.3406 17.7863 2.66961 15.6881 2.66961C13.5899 2.66961 11.7015 3.32423 10.023 4.63348C8.34439 5.90999 7.03705 7.71021 6.10093 10.0341C5.19709 12.3253 4.74517 14.9438 4.74517 17.8896C4.74517 20.8354 5.29393 23.5521 6.39145 26.0397C7.48897 28.5272 8.98999 30.5075 10.8945 31.9804C12.8313 33.4205 14.9779 34.1406 17.3344 34.1406C18.6256 34.1406 19.8684 33.9442 21.0627 33.5515C22.2894 33.1587 23.3223 32.5532 24.1616 31.7349V23.1921C24.1616 21.8173 23.8227 20.8027 23.1448 20.1481C22.4669 19.4934 21.2725 19.117 19.5617 19.0188V18.3315H32.9256V19.0188C31.4085 19.117 30.2948 19.5098 29.5847 20.1972C28.9068 20.8845 28.5678 21.8828 28.5678 23.1921V29.7219C27.3412 31.4239 25.5981 32.8314 23.3385 33.9442C21.1111 35.0571 18.5933 35.6135 15.7849 35.6135Z" fill="black"/>
</svg>
