<svg width="108" height="35" viewBox="0 0 108 35" fill="none" xmlns="http://www.w3.org/2000/svg">
<path d="M98.6065 34.4882C96.3505 34.4882 94.2936 33.9574 92.4358 32.8958C90.6111 31.8341 89.3504 30.4573 88.6537 28.7654L92.2865 27.0236C92.6514 28.8483 93.4476 30.3246 94.6751 31.4526C95.9027 32.5474 97.296 33.0948 98.8553 33.0948C100.448 33.0948 101.725 32.6801 102.687 31.8507C103.682 31.0213 104.18 29.9265 104.18 28.5663C104.18 27.4383 103.865 26.526 103.235 25.8293C102.604 25.0994 101.841 24.5188 100.945 24.0875C100.05 23.6563 98.8387 23.1752 97.3126 22.6444C95.6207 22.0804 94.2604 21.5496 93.232 21.0519C92.2035 20.5211 91.3244 19.7912 90.5945 18.8623C89.8646 17.9334 89.4831 16.7556 89.4499 15.3291C89.4167 13.1726 90.1964 11.4309 91.7888 10.1038C93.4145 8.7768 95.5377 8.11328 98.1586 8.11328C100.249 8.11328 102.123 8.56116 103.782 9.45691C105.441 10.3527 106.552 11.547 107.116 13.0399L103.732 14.6324C103.268 13.1063 102.488 11.8788 101.393 10.9498C100.298 9.98773 99.1041 9.50668 97.8103 9.50668C96.3174 9.50668 95.123 9.8882 94.2273 10.6512C93.3315 11.4143 92.8836 12.4096 92.8836 13.6371C92.8836 14.5992 93.1656 15.3954 93.7296 16.0258C94.2936 16.6561 94.9903 17.1703 95.8197 17.5685C96.6823 17.9334 97.8435 18.3647 99.3032 18.8623C101.095 19.4927 102.538 20.0898 103.633 20.6538C104.727 21.1846 105.656 21.9643 106.419 22.9927C107.216 23.988 107.614 25.2819 107.614 26.8743C107.614 29.1303 106.768 30.9716 105.076 32.3981C103.417 33.7915 101.261 34.4882 98.6065 34.4882Z" fill="black"/>
<path d="M84.7683 30.109C84.7683 31.1043 85.0337 31.801 85.5645 32.1991C86.1285 32.5972 86.9579 32.8958 88.0527 33.0948V33.7915H77.3037V33.0948C78.4317 32.8958 79.2611 32.5972 79.7919 32.1991C80.3559 31.801 80.6379 31.1043 80.6379 30.109V15.976C80.6379 14.4499 80.2232 13.239 79.3938 12.3432C78.5975 11.4475 77.4861 10.9996 76.0596 10.9996C74.7989 10.9996 73.6211 11.3148 72.5263 11.9451C71.4315 12.5755 70.2372 13.6205 68.9433 15.0803V30.109C68.9433 31.1043 69.2087 31.801 69.7395 32.1991C70.3035 32.5972 71.1329 32.8958 72.2277 33.0948V33.7915H61.4787V33.0948C62.6067 32.8958 63.4361 32.5972 63.9669 32.1991C64.5309 31.801 64.8129 31.1043 64.8129 30.109V13.438C64.8129 12.5755 64.5972 11.9451 64.166 11.547C63.7678 11.1157 63.1209 10.8835 62.2252 10.8503H61.0308V10.1536L68.2466 8.11328H68.9433V13.8859C70.4031 11.9617 71.8296 10.5185 73.223 9.55644C74.6164 8.59433 76.1425 8.11328 77.8013 8.11328C80.0241 8.11328 81.7327 8.7768 82.927 10.1038C84.1545 11.4309 84.7683 13.3053 84.7683 15.7272V30.109Z" fill="black"/>
<path d="M24.4905 34.4882C22.2345 34.4882 20.244 33.9242 18.5188 32.7963C16.7937 31.6683 15.45 30.1256 14.4879 28.1682C13.559 26.2108 13.0945 24.0212 13.0945 21.5993C13.0945 19.0448 13.5756 16.7556 14.5377 14.7319C15.4998 12.675 16.8766 11.0659 18.6681 9.90479C20.4928 8.71045 22.5995 8.11328 24.9882 8.11328C26.5806 8.11328 28.0072 8.41187 29.2679 9.00903C30.5617 9.6062 31.5902 10.3693 32.3532 11.2982C33.1163 12.2271 33.5807 13.1726 33.7466 14.1347L29.8153 15.3788C29.5167 13.7864 28.9195 12.4096 28.0238 11.2484C27.128 10.0873 25.9005 9.50668 24.3412 9.50668C22.981 9.50668 21.7701 9.93797 20.7084 10.8005C19.6468 11.6631 18.8174 12.8575 18.2202 14.3836C17.6231 15.8765 17.3245 17.5685 17.3245 19.4595C17.3245 21.7155 17.6894 23.706 18.4193 25.4312C19.1492 27.1563 20.1776 28.5 21.5047 29.4621C22.8649 30.4242 24.4573 30.9052 26.282 30.9052C27.8081 30.9052 29.2347 30.5071 30.5617 29.7109C31.8888 28.9147 32.9836 27.7369 33.8462 26.1776L34.4433 26.3269C33.7798 28.8483 32.5689 30.8389 30.8105 32.2986C29.0854 33.7584 26.9787 34.4882 24.4905 34.4882Z" fill="black"/>
<path d="M7.91252 30.1089C7.91252 31.1042 8.17792 31.8009 8.70874 32.199C9.27273 32.5971 10.1021 32.8957 11.1969 33.0947V33.7914H0.447907V33.0947C1.57589 32.8957 2.40529 32.5971 2.93611 32.199C3.5001 31.8009 3.7821 31.1042 3.7821 30.1089V5.37452C3.7821 4.54512 3.56646 3.91477 3.13517 3.48348C2.73705 3.0522 2.09012 2.80337 1.19437 2.73702H3.05176e-05V2.04032L7.21582 0H7.91252V30.1089Z" fill="black"/>
<path d="M39.0727 28.1543C39.8461 29.7013 40.8662 30.9694 42.1328 31.9589C42.6926 32.3962 43.4745 32.3411 44.0327 31.9016L44.0571 31.8824C44.8132 31.2872 44.9121 30.1859 44.4084 29.3661C43.754 28.301 43.2361 27.0843 42.8547 25.7159C42.3239 23.6921 42.0585 21.6518 42.0585 19.5949C42.0585 16.5427 42.6557 14.0545 43.85 12.1303C45.0775 10.2061 46.7032 9.24398 48.7269 9.24398C50.4852 9.24398 51.9616 9.92409 53.1559 11.2843C54.3502 12.6445 55.2128 14.3365 55.7436 16.3602C56.0682 17.5247 56.2993 18.6837 56.4371 19.8372C56.5808 21.0401 57.8241 21.8627 58.9409 21.3931L59.9311 20.9767C60.5599 20.7124 60.9767 20.0961 60.9349 19.4153C60.81 17.382 60.3402 15.5509 59.5257 13.9218C58.5636 11.9976 57.2034 10.5047 55.445 9.44304C53.7199 8.3814 51.7459 7.85059 49.5231 7.85059C47.2008 7.85059 45.1439 8.43117 43.3524 9.59233C41.5609 10.7535 40.1509 12.3791 39.1224 14.4692C38.1272 16.5261 37.6295 18.8982 37.6295 21.5855C37.6295 24.0405 38.1106 26.2301 39.0727 28.1543Z" fill="black"/>
</svg>
