<svg width="165" height="77" viewBox="0 0 165 77" fill="none" xmlns="http://www.w3.org/2000/svg">
<path d="M155.007 76.1752C152.751 76.1752 150.694 75.6444 148.836 74.5828C147.011 73.5212 145.751 72.1444 145.054 70.4524L148.687 68.7106C149.052 70.5353 149.848 72.0117 151.075 73.1396C152.303 74.2344 153.696 74.7818 155.256 74.7818C156.848 74.7818 158.125 74.3672 159.087 73.5378C160.083 72.7084 160.58 71.6135 160.58 70.2533C160.58 69.1253 160.265 68.213 159.635 67.5163C159.004 66.7864 158.241 66.2058 157.346 65.7746C156.45 65.3433 155.239 64.8622 153.713 64.3314C152.021 63.7674 150.661 63.2366 149.632 62.7389C148.604 62.2081 147.725 61.4783 146.995 60.5493C146.265 59.6204 145.883 58.4427 145.85 57.0161C145.817 54.8596 146.597 53.1179 148.189 51.7909C149.815 50.4638 151.938 49.8003 154.559 49.8003C156.649 49.8003 158.523 50.2482 160.182 51.1439C161.841 52.0397 162.952 53.234 163.516 54.7269L160.132 56.3194C159.668 54.7933 158.888 53.5658 157.794 52.6368C156.699 51.6747 155.504 51.1937 154.211 51.1937C152.718 51.1937 151.523 51.5752 150.628 52.3383C149.732 53.1013 149.284 54.0966 149.284 55.3241C149.284 56.2862 149.566 57.0824 150.13 57.7128C150.694 58.3431 151.391 58.8574 152.22 59.2555C153.083 59.6204 154.244 60.0517 155.703 60.5493C157.495 61.1797 158.938 61.7768 160.033 62.3408C161.128 62.8717 162.057 63.6513 162.82 64.6797C163.616 65.675 164.014 66.9689 164.014 68.5613C164.014 70.8173 163.168 72.6586 161.476 74.0852C159.817 75.4785 157.661 76.1752 155.007 76.1752Z" fill="black"/>
<path d="M141.169 71.796C141.169 72.7913 141.434 73.488 141.965 73.8861C142.529 74.2842 143.358 74.5828 144.453 74.7818V75.4785H133.704V74.7818C134.832 74.5828 135.661 74.2842 136.192 73.8861C136.756 73.488 137.038 72.7913 137.038 71.796V57.663C137.038 56.1369 136.623 54.926 135.794 54.0302C134.998 53.1345 133.886 52.6866 132.46 52.6866C131.199 52.6866 130.021 53.0018 128.927 53.6321C127.832 54.2625 126.637 55.3075 125.344 56.7673V71.796C125.344 72.7913 125.609 73.488 126.14 73.8861C126.704 74.2842 127.533 74.5828 128.628 74.7818V75.4785H117.879V74.7818C119.007 74.5828 119.836 74.2842 120.367 73.8861C120.931 73.488 121.213 72.7913 121.213 71.796V55.125C121.213 54.2625 120.998 53.6321 120.566 53.234C120.168 52.8027 119.521 52.5705 118.625 52.5373H117.431V51.8406L124.647 49.8003H125.344V55.5729C126.803 53.6487 128.23 52.2056 129.623 51.2435C131.017 50.2813 132.543 49.8003 134.202 49.8003C136.424 49.8003 138.133 50.4638 139.327 51.7909C140.555 53.1179 141.169 54.9923 141.169 57.4142V71.796Z" fill="black"/>
<path d="M80.8908 76.1752C78.6348 76.1752 76.6442 75.6113 74.9191 74.4833C73.1939 73.3553 71.8503 71.8126 70.8882 69.8552C69.9593 67.8978 69.4948 65.7082 69.4948 63.2864C69.4948 60.7318 69.9759 58.4427 70.938 56.4189C71.9001 54.362 73.2769 52.753 75.0684 51.5918C76.8931 50.3975 78.9997 49.8003 81.3884 49.8003C82.9809 49.8003 84.4074 50.0989 85.6681 50.696C86.962 51.2932 87.9905 52.0563 88.7535 52.9852C89.5166 53.9141 89.981 54.8596 90.1469 55.8217L86.2155 57.0658C85.9169 55.4734 85.3198 54.0966 84.424 52.9354C83.5283 51.7743 82.3008 51.1937 80.7415 51.1937C79.3813 51.1937 78.1703 51.625 77.1087 52.4876C76.0471 53.3501 75.2177 54.5445 74.6205 56.0706C74.0233 57.5635 73.7248 59.2555 73.7248 61.1465C73.7248 63.4025 74.0897 65.393 74.8196 67.1182C75.5494 68.8433 76.5779 70.187 77.9049 71.1491C79.2652 72.1112 80.8576 72.5922 82.6823 72.5922C84.2084 72.5922 85.635 72.1941 86.962 71.3979C88.289 70.6017 89.3838 69.4239 90.2464 67.8646L90.8436 68.0139C90.1801 70.5353 88.9691 72.5259 87.2108 73.9856C85.4857 75.4454 83.379 76.1752 80.8908 76.1752Z" fill="black"/>
<path d="M64.3128 71.7959C64.3128 72.7912 64.5782 73.4879 65.109 73.886C65.673 74.2841 66.5024 74.5827 67.5972 74.7818V75.4785H56.8481V74.7818C57.9761 74.5827 58.8055 74.2841 59.3363 73.886C59.9003 73.4879 60.1823 72.7912 60.1823 71.7959V47.0615C60.1823 46.2321 59.9667 45.6018 59.5354 45.1705C59.1373 44.7392 58.4904 44.4904 57.5946 44.424H56.4003V43.7273L63.6161 41.687H64.3128V71.7959Z" fill="black"/>
<path d="M95.4729 69.8413C96.2463 71.3883 97.2664 72.6565 98.533 73.6459C99.0928 74.0832 99.8747 74.0281 100.433 73.5887L100.457 73.5694C101.213 72.9742 101.312 71.8729 100.809 71.0531C100.154 69.988 99.6363 68.7713 99.2549 67.4029C98.7241 65.3792 98.4587 63.3388 98.4587 61.2819C98.4587 58.2297 99.0559 55.7415 100.25 53.8173C101.478 51.8931 103.103 50.931 105.127 50.931C106.885 50.931 108.362 51.6111 109.556 52.9713C110.75 54.3315 111.613 56.0235 112.144 58.0473C112.468 59.2117 112.7 60.3707 112.837 61.5242C112.981 62.7271 114.224 63.5497 115.341 63.0801L116.331 62.6637C116.96 62.3994 117.377 61.7831 117.335 61.1023C117.21 59.069 116.74 57.2379 115.926 55.6088C114.964 53.6846 113.604 52.1917 111.845 51.13C110.12 50.0684 108.146 49.5376 105.923 49.5376C103.601 49.5376 101.544 50.1182 99.7526 51.2793C97.9611 52.4405 96.5511 54.0661 95.5226 56.1562C94.5274 58.2131 94.0297 60.5852 94.0297 63.2725C94.0297 65.7275 94.5108 67.9171 95.4729 69.8413Z" fill="black"/>
<path d="M130.738 31.4509C130.738 32.4462 131.003 33.1429 131.534 33.541C132.098 33.9391 132.928 34.2377 134.022 34.4367V35.1334H123.273V34.4367C124.401 34.2377 125.231 33.9391 125.762 33.541C126.326 33.1429 126.608 32.4462 126.608 31.4509V5.32475C126.608 4.46218 126.392 3.83183 125.961 3.43372C125.562 3.00243 124.916 2.7702 124.02 2.73702H122.825V2.04033L130.041 0H130.738V31.4509Z" fill="black"/>
<path d="M122.499 33.1433V33.84L115.283 35.8803H114.587V29.4607C113.857 31.4513 112.745 33.0271 111.252 34.1883C109.76 35.3163 108.068 35.8803 106.177 35.8803C104.219 35.8803 102.627 35.2831 101.399 34.0888C100.205 32.8944 99.6077 31.3352 99.6077 29.411C99.6077 27.7853 99.9726 26.4417 100.702 25.3801C101.466 24.2853 102.643 23.3729 104.236 22.643C105.861 21.9132 108.018 21.2828 110.705 20.752L114.587 20.0055V18.3136C114.587 15.9912 114.072 14.1666 113.044 12.8395C112.015 11.5125 110.589 10.849 108.764 10.849C107.305 10.849 106.127 11.33 105.231 12.2921C104.368 13.2542 103.937 14.4154 103.937 15.7756C103.937 16.6382 104.136 17.5008 104.534 18.3633L100.653 19.707C100.155 18.7117 99.9062 17.733 99.9062 16.7709C99.9062 15.4438 100.321 14.2163 101.15 13.0883C102.013 11.9604 103.191 11.0812 104.684 10.4508C106.177 9.78733 107.835 9.45557 109.66 9.45557C112.447 9.45557 114.653 10.2684 116.279 11.894C117.904 13.4865 118.717 15.6595 118.717 18.4131V30.5058C118.717 31.3683 118.916 31.9987 119.314 32.3968C119.746 32.7949 120.409 33.0271 121.305 33.0935L122.499 33.1433ZM114.587 21.4487L110.854 22.1952C108.466 22.6596 106.707 23.3729 105.579 24.335C104.451 25.2971 103.887 26.591 103.887 28.2166C103.887 29.61 104.302 30.7712 105.131 31.7001C105.961 32.5959 107.023 33.0437 108.316 33.0437C109.577 33.0437 110.771 32.5959 111.899 31.7001C113.027 30.7712 113.923 29.5602 114.587 28.0673V21.4487Z" fill="black"/>
<path d="M86.465 9.45517C88.4224 9.45517 90.1641 10.0192 91.6902 11.1471C93.2163 12.242 94.394 13.7349 95.2234 15.6259C96.0528 17.4838 96.4675 19.5573 96.4675 21.8464C96.4675 24.7991 95.9367 27.3371 94.8751 29.4603C93.8135 31.5836 92.3869 33.1926 90.5954 34.2874C88.8371 35.3491 86.8963 35.8799 84.773 35.8799C83.4128 35.8799 82.1355 35.5813 80.9412 34.9841C79.78 34.387 78.7847 33.5244 77.9553 32.3964L75.0192 35.8799H74.3225V5.32475C74.3225 4.46218 74.1235 3.83183 73.7254 3.43372C73.3273 3.00243 72.6637 2.7702 71.7348 2.73702H70.5405V2.04033L77.7563 0H78.453V15.5761C79.1496 13.8178 80.1947 12.3581 81.5881 11.1969C83.0147 10.0357 84.6403 9.45517 86.465 9.45517ZM85.2209 34.1879C86.5147 34.1879 87.6759 33.7234 88.7043 32.7945C89.766 31.8324 90.5788 30.5551 91.1428 28.9627C91.74 27.3702 92.0385 25.6285 92.0385 23.7375C92.0385 21.8132 91.7731 19.972 91.2423 18.2136C90.7115 16.4553 89.8987 15.0122 88.8039 13.8842C87.7422 12.723 86.3986 12.1424 84.773 12.1424C83.5123 12.1424 82.2682 12.6567 81.0407 13.6851C79.8132 14.6804 78.9506 15.8416 78.453 17.1686V26.5242C78.453 27.7849 78.7018 29.0124 79.1994 30.2068C79.6971 31.3679 80.4601 32.33 81.4886 33.0931C82.517 33.823 83.7611 34.1879 85.2209 34.1879Z" fill="black"/>
<path d="M41.1662 31.4509C41.1662 32.4462 41.4316 33.1429 41.9624 33.541C42.5264 33.9391 43.3558 34.2377 44.4506 34.4367V35.1334H33.7016V34.4367C34.8296 34.2377 35.659 33.9391 36.1898 33.541C36.7538 33.1429 37.0358 32.4462 37.0358 31.4509V5.32475C37.0358 4.46218 36.8201 3.83183 36.3889 3.43372C35.9907 3.00243 35.3438 2.7702 34.4481 2.73702H33.2537V2.04033L40.4695 0H41.1662V31.4509Z" fill="black"/>
<path d="M69.1755 13.9548C68.3547 12.3131 67.2561 10.9854 65.8799 9.97159C65.4509 9.65559 64.8664 9.69506 64.4478 10.0246L63.8447 10.4994C63.2777 10.9458 63.2016 11.7716 63.6021 12.3719C64.3699 13.5227 64.967 14.8632 65.3934 16.3932C65.9242 18.417 66.1897 20.4573 66.1897 22.5142C66.1897 25.5664 65.5925 28.0546 64.3981 29.9788C63.1706 31.903 61.545 32.8652 59.5213 32.8652C57.7629 32.8652 56.2866 32.185 55.0923 30.8248C53.8979 29.4646 53.0354 27.7726 52.5045 25.7489C52.1205 24.3708 51.8672 23.0005 51.7447 21.6378C51.6633 20.7328 50.7327 20.1167 49.8951 20.4689L48.0576 21.2415C47.586 21.4397 47.275 21.9019 47.2983 22.4129C47.3959 24.5588 47.8706 26.4836 48.7225 28.1873C49.6846 30.1115 51.0448 31.6045 52.8031 32.6661C54.5283 33.7277 56.5022 34.2585 58.725 34.2585C61.0474 34.2585 63.1043 33.678 64.8958 32.5168C66.6873 31.3556 68.0973 29.73 69.1257 27.6399C70.121 25.583 70.6187 23.2109 70.6187 20.5237C70.6187 18.0686 70.1376 15.879 69.1755 13.9548Z" fill="black"/>
<path d="M15.7849 35.6135C12.7506 35.6135 10.023 34.8935 7.60195 33.4533C5.21323 32.0131 3.34098 30.0492 1.98522 27.5617C0.661741 25.0414 0 22.2756 0 19.2643C0 15.7621 0.661741 12.6526 1.98522 9.93593C3.34098 7.21924 5.26165 5.10808 7.74721 3.60245C10.2328 2.09681 13.1218 1.34399 16.4144 1.34399C19.4487 1.34399 22.0957 2.01498 24.3553 3.35696C26.6472 4.66621 28.1159 6.40096 28.7615 8.56122L24.5006 9.93593C23.9518 7.77567 22.8704 6.02455 21.2564 4.68258C19.6424 3.3406 17.7863 2.66961 15.6881 2.66961C13.5899 2.66961 11.7015 3.32423 10.023 4.63348C8.34439 5.90999 7.03705 7.71021 6.10093 10.0341C5.19709 12.3253 4.74517 14.9438 4.74517 17.8896C4.74517 20.8354 5.29393 23.5521 6.39145 26.0397C7.48897 28.5272 8.98999 30.5075 10.8945 31.9804C12.8313 33.4206 14.9779 34.1406 17.3344 34.1406C18.6256 34.1406 19.8684 33.9442 21.0627 33.5515C22.2894 33.1587 23.3223 32.5532 24.1616 31.7349V23.1921C24.1616 21.8173 23.8227 20.8027 23.1448 20.1481C22.4669 19.4934 21.2725 19.117 19.5617 19.0188V18.3315H32.9256V19.0188C31.4085 19.117 30.2948 19.5098 29.5847 20.1972C28.9068 20.8845 28.5678 21.8828 28.5678 23.1921V29.7219C27.3412 31.4239 25.5981 32.8314 23.3385 33.9442C21.1111 35.0571 18.5933 35.6135 15.7849 35.6135Z" fill="black"/>
</svg>
