<svg width="55" height="20" viewBox="0 0 55 20" fill="none" xmlns="http://www.w3.org/2000/svg">
<path d="M14.123 7.37207H13.1997L15.8702 0.0993428H16.7793L19.4497 7.37207H18.5264L16.3531 1.24991H16.2963L14.123 7.37207ZM14.4639 4.53116H18.1855V5.31241H14.4639V4.53116ZM20.7972 0.0993428L22.9563 6.2215H23.0416L25.2006 0.0993428H26.1239L23.4535 7.37207H22.5444L19.8739 0.0993428H20.7972ZM27.8568 7.37207V0.0993428H30.3141C30.8823 0.0993428 31.3487 0.196407 31.7133 0.390536C32.0779 0.582297 32.3478 0.846265 32.5229 1.18244C32.6981 1.51861 32.7857 1.90095 32.7857 2.32946C32.7857 2.75796 32.6981 3.13793 32.5229 3.46937C32.3478 3.80081 32.0791 4.06123 31.7168 4.25062C31.3546 4.43765 30.8918 4.53116 30.3283 4.53116H28.3397V3.73571H30.2999C30.6882 3.73571 31.0007 3.67889 31.2374 3.56525C31.4765 3.45162 31.6494 3.29063 31.7559 3.0823C31.8648 2.8716 31.9193 2.62065 31.9193 2.32946C31.9193 2.03826 31.8648 1.78377 31.7559 1.56596C31.647 1.34816 31.473 1.18007 31.2339 1.0617C30.9948 0.940962 30.6787 0.880593 30.2857 0.880593H28.7374V7.37207H27.8568ZM31.2801 4.10502L33.0698 7.37207H32.0471L30.2857 4.10502H31.2801ZM38.8305 1.91752C38.7879 1.55768 38.6151 1.27832 38.312 1.07946C38.009 0.880593 37.6373 0.781161 37.197 0.781161C36.875 0.781161 36.5933 0.833244 36.3518 0.937411C36.1127 1.04158 35.9257 1.18481 35.7907 1.3671C35.6582 1.54939 35.5919 1.75654 35.5919 1.98855C35.5919 2.18268 35.638 2.34958 35.7304 2.48926C35.8251 2.62657 35.9458 2.74139 36.0926 2.83372C36.2394 2.92368 36.3932 2.99825 36.5542 3.05744C36.7152 3.11426 36.8632 3.16042 36.9981 3.19593L37.7368 3.3948C37.9262 3.44451 38.1369 3.51317 38.3689 3.60076C38.6032 3.68836 38.827 3.80791 39.04 3.95943C39.2555 4.10858 39.433 4.30034 39.5727 4.53471C39.7124 4.76909 39.7822 5.05673 39.7822 5.39764C39.7822 5.79063 39.6792 6.14574 39.4733 6.46298C39.2697 6.78021 38.9714 7.03234 38.5784 7.21937C38.1878 7.4064 37.7131 7.49991 37.1544 7.49991C36.6335 7.49991 36.1825 7.41587 35.8014 7.24778C35.4226 7.07969 35.1243 6.84532 34.9065 6.54466C34.6911 6.24399 34.5691 5.8948 34.5407 5.49707H35.4498C35.4735 5.77169 35.5658 5.99896 35.7268 6.17889C35.8902 6.35645 36.0961 6.48902 36.3447 6.57662C36.5957 6.66184 36.8655 6.70446 37.1544 6.70446C37.4905 6.70446 37.7924 6.65001 38.0599 6.5411C38.3274 6.42984 38.5393 6.27595 38.6956 6.07946C38.8518 5.88059 38.9299 5.64859 38.9299 5.38343C38.9299 5.14196 38.8625 4.94546 38.7275 4.79395C38.5926 4.64243 38.415 4.51932 38.1949 4.42463C37.9747 4.32993 37.7368 4.24707 37.4811 4.17605L36.5862 3.92037C36.018 3.75701 35.5682 3.52382 35.2368 3.22079C34.9053 2.91776 34.7396 2.52122 34.7396 2.03116C34.7396 1.62396 34.8497 1.26885 35.0699 0.96582C35.2924 0.660422 35.5907 0.42368 35.9647 0.255593C36.3412 0.0851382 36.7614 -8.90493e-05 37.2254 -8.90493e-05C37.6941 -8.90493e-05 38.1108 0.0839545 38.4754 0.252042C38.84 0.417761 39.1288 0.645034 39.3419 0.93386C39.5573 1.22269 39.6709 1.55057 39.6828 1.91752H38.8305ZM-8.02279e-05 19.3721V12.0993H2.45731C3.02786 12.0993 3.49424 12.2023 3.85645 12.4083C4.22104 12.6119 4.49092 12.8877 4.66611 13.2357C4.8413 13.5837 4.9289 13.972 4.9289 14.4005C4.9289 14.829 4.8413 15.2184 4.66611 15.5688C4.49329 15.9192 4.22577 16.1985 3.86356 16.4069C3.50134 16.6128 3.03733 16.7158 2.47151 16.7158H0.710147V15.9346H2.4431C2.83373 15.9346 3.14741 15.8671 3.38415 15.7322C3.6209 15.5972 3.79253 15.4149 3.89907 15.1853C4.00797 14.9533 4.06242 14.6917 4.06242 14.4005C4.06242 14.1093 4.00797 13.8489 3.89907 13.6192C3.79253 13.3896 3.61971 13.2097 3.3806 13.0795C3.14149 12.9469 2.82426 12.8806 2.4289 12.8806H0.880602V19.3721H-8.02279e-05ZM6.50368 19.3721H5.58039L8.25084 12.0993H9.15993L11.8304 19.3721H10.9071L8.7338 13.2499H8.67698L6.50368 19.3721ZM6.84459 16.5312H10.5662V17.3124H6.84459V16.5312ZM13.5632 19.3721V12.0993H16.0206C16.5888 12.0993 17.0552 12.1964 17.4197 12.3905C17.7843 12.5823 18.0542 12.8463 18.2294 13.1824C18.4046 13.5186 18.4922 13.901 18.4922 14.3295C18.4922 14.758 18.4046 15.1379 18.2294 15.4694C18.0542 15.8008 17.7855 16.0612 17.4233 16.2506C17.0611 16.4376 16.5982 16.5312 16.0348 16.5312H14.0462V15.7357H16.0064C16.3946 15.7357 16.7071 15.6789 16.9439 15.5653C17.183 15.4516 17.3558 15.2906 17.4623 15.0823C17.5712 14.8716 17.6257 14.6206 17.6257 14.3295C17.6257 14.0383 17.5712 13.7838 17.4623 13.566C17.3534 13.3482 17.1794 13.1801 16.9403 13.0617C16.7012 12.941 16.3852 12.8806 15.9922 12.8806H14.4439V19.3721H13.5632ZM16.9865 16.105L18.7763 19.3721H17.7535L15.9922 16.105H16.9865ZM20.162 12.8806V12.0993H25.6165V12.8806H23.3296V19.3721H22.4489V12.8806H20.162ZM33.3427 12.0993V19.3721H32.4905L28.5274 13.6618H28.4564V19.3721H27.5757V12.0993H28.428L32.4052 17.8238H32.4763V12.0993H33.3427ZM35.705 19.3721V12.0993H40.0942V12.8806H36.5857V15.338H39.8669V16.1192H36.5857V18.5908H40.151V19.3721H35.705ZM42.2816 19.3721V12.0993H44.7389C45.3071 12.0993 45.7735 12.1964 46.1381 12.3905C46.5027 12.5823 46.7726 12.8463 46.9478 13.1824C47.1229 13.5186 47.2105 13.901 47.2105 14.3295C47.2105 14.758 47.1229 15.1379 46.9478 15.4694C46.7726 15.8008 46.5039 16.0612 46.1416 16.2506C45.7794 16.4376 45.3166 16.5312 44.7532 16.5312H42.7645V15.7357H44.7247C45.113 15.7357 45.4255 15.6789 45.6622 15.5653C45.9014 15.4516 46.0742 15.2906 46.1807 15.0823C46.2896 14.8716 46.3441 14.6206 46.3441 14.3295C46.3441 14.0383 46.2896 13.7838 46.1807 13.566C46.0718 13.3482 45.8978 13.1801 45.6587 13.0617C45.4196 12.941 45.1035 12.8806 44.7105 12.8806H43.1622V19.3721H42.2816ZM45.7049 16.105L47.4946 19.3721H46.4719L44.7105 16.105H45.7049ZM53.2553 13.9175C53.2127 13.5577 53.0399 13.2783 52.7369 13.0795C52.4338 12.8806 52.0621 12.7812 51.6218 12.7812C51.2998 12.7812 51.0181 12.8332 50.7766 12.9374C50.5375 13.0416 50.3505 13.1848 50.2155 13.3671C50.083 13.5494 50.0167 13.7565 50.0167 13.9885C50.0167 14.1827 50.0628 14.3496 50.1552 14.4893C50.2499 14.6266 50.3706 14.7414 50.5174 14.8337C50.6642 14.9237 50.8181 14.9983 50.979 15.0574C51.14 15.1143 51.288 15.1604 51.4229 15.1959L52.1616 15.3948C52.351 15.4445 52.5617 15.5132 52.7937 15.6008C53.028 15.6884 53.2518 15.8079 53.4648 15.9594C53.6803 16.1086 53.8578 16.3003 53.9975 16.5347C54.1372 16.7691 54.207 17.0567 54.207 17.3976C54.207 17.7906 54.104 18.1457 53.8981 18.463C53.6945 18.7802 53.3962 19.0323 53.0032 19.2194C52.6126 19.4064 52.1379 19.4999 51.5792 19.4999C51.0583 19.4999 50.6074 19.4159 50.2262 19.2478C49.8474 19.0797 49.5491 18.8453 49.3313 18.5447C49.1159 18.244 48.994 17.8948 48.9655 17.4971H49.8746C49.8983 17.7717 49.9906 17.999 50.1516 18.1789C50.315 18.3564 50.5209 18.489 50.7695 18.5766C51.0205 18.6618 51.2904 18.7045 51.5792 18.7045C51.9154 18.7045 52.2172 18.65 52.4847 18.5411C52.7522 18.4298 52.9641 18.276 53.1204 18.0795C53.2766 17.8806 53.3547 17.6486 53.3547 17.3834C53.3547 17.142 53.2873 16.9455 53.1523 16.7939C53.0174 16.6424 52.8398 16.5193 52.6197 16.4246C52.3995 16.3299 52.1616 16.2471 51.9059 16.176L51.011 15.9204C50.4428 15.757 49.993 15.5238 49.6616 15.2208C49.3301 14.9178 49.1644 14.5212 49.1644 14.0312C49.1644 13.624 49.2745 13.2689 49.4947 12.9658C49.7172 12.6604 50.0155 12.4237 50.3895 12.2556C50.766 12.0851 51.1862 11.9999 51.6502 11.9999C52.119 11.9999 52.5356 12.084 52.9002 12.252C53.2648 12.4178 53.5536 12.645 53.7667 12.9339C53.9821 13.2227 54.0958 13.5506 54.1076 13.9175H53.2553Z" fill="#F2F1EF"/>
</svg>
