<svg width="137" height="42" viewBox="0 0 137 42" fill="none" xmlns="http://www.w3.org/2000/svg">
<path d="M16.3428 0C19.327 0.301469 21.6178 2.99465 21.792 5.89551C21.8981 7.6705 21.8904 10.1217 21.7891 11.8994C21.6377 14.5448 20.0785 16.6448 17.542 17.4727C17.2291 17.5748 16.792 17.5516 16.5859 17.7979C19.4978 18.2374 21.6283 20.7215 21.792 23.625C22.0202 27.6709 21.4957 32.033 21.7871 36.0479C21.9551 38.3671 23.4516 40.396 25.6572 41.168L26.9932 41.5293H20.9219C20.7265 41.5291 20.0059 41.3522 19.7764 41.2881C17.3149 40.5981 15.7598 38.3193 15.6113 35.8408C15.3664 31.7624 15.9308 27.3212 15.6172 23.2793C15.406 20.5649 12.9475 18.0207 10.2021 17.7979C10.2146 17.6896 10.3048 17.6915 10.3818 17.666C10.8412 17.517 11.3272 17.4851 11.8164 17.2988C13.8721 16.5151 15.4461 14.4386 15.6162 12.2471C15.7564 10.4446 15.7556 7.35344 15.6162 5.55078C15.4386 3.25355 13.5948 1.05961 11.4355 0.324219C11.1665 0.232626 10.8739 0.204005 10.6035 0.117188C10.53 0.0937465 10.3944 0.0998397 10.4102 0H16.3428ZM6.63672 19.0508C5.38095 19.5834 4.34703 20.9565 4.23047 22.3154C3.9842 25.1797 4.42505 28.391 4.23633 31.2891C4.08916 33.5455 2.41791 35.2397 0.117188 35.2549C0.0713793 35.2404 0 35.0987 0 35.0801V22.5254C0 20.874 1.86997 18.6966 3.57324 18.6963H7.69922L6.63672 19.0508ZM7.4248 5.6543C7.45946 5.86034 7.3698 5.76357 7.26172 5.7998C1.05673 7.87903 7.19203 15.6803 1.64355 17.8086C1.19672 17.9804 0.416999 18.2116 0 17.9688V9.4834C0 7.83959 1.87136 5.65464 3.57324 5.6543H7.4248ZM10.791 5.6543C11.242 5.6543 12.3548 6.85243 12.4609 7.30566C13.0337 9.74335 9.52059 10.7726 8.54492 8.71582C8.50122 8.6234 8.32819 8.16092 8.32812 8.10352V5.75781L8.43164 5.6543H10.791Z" fill="#F3F2F0"/>
<path d="M37.1987 16.5029V7.77566H43.3351V9.68475H39.568V11.1847H42.9601V13.0938H39.568V16.5029H37.1987ZM53.8611 12.1393C53.8611 13.1109 53.6722 13.9305 53.2943 14.5981C52.9165 15.2629 52.4065 15.7671 51.7645 16.1109C51.1225 16.4518 50.4065 16.6222 49.6168 16.6222C48.8213 16.6222 48.1026 16.4504 47.4605 16.1066C46.8213 15.76 46.3128 15.2544 45.935 14.5896C45.56 13.922 45.3725 13.1052 45.3725 12.1393C45.3725 11.1677 45.56 10.3495 45.935 9.68475C46.3128 9.01713 46.8213 8.51287 47.4605 8.17196C48.1026 7.82821 48.8213 7.65634 49.6168 7.65634C50.4065 7.65634 51.1225 7.82821 51.7645 8.17196C52.4065 8.51287 52.9165 9.01713 53.2943 9.68475C53.6722 10.3495 53.8611 11.1677 53.8611 12.1393ZM51.4236 12.1393C51.4236 11.6166 51.354 11.1762 51.2148 10.8183C51.0784 10.4575 50.8753 10.1847 50.6054 10.0001C50.3384 9.81259 50.0088 9.71884 49.6168 9.71884C49.2247 9.71884 48.8938 9.81259 48.6239 10.0001C48.3568 10.1847 48.1537 10.4575 48.0145 10.8183C47.8781 11.1762 47.81 11.6166 47.81 12.1393C47.81 12.662 47.8781 13.1038 48.0145 13.4646C48.1537 13.8225 48.3568 14.0953 48.6239 14.2828C48.8938 14.4674 49.2247 14.5597 49.6168 14.5597C50.0088 14.5597 50.3384 14.4674 50.6054 14.2828C50.8753 14.0953 51.0784 13.8225 51.2148 13.4646C51.354 13.1038 51.4236 12.662 51.4236 12.1393ZM63.7085 7.77566V16.5029H61.7312L58.5778 11.9177H58.5266V16.5029H56.1573V7.77566H58.1687L61.271 12.3438H61.3391V7.77566H63.7085ZM74.1769 11.0484H71.7735C71.7565 10.8495 71.711 10.6691 71.6372 10.5072C71.5661 10.3453 71.4667 10.2061 71.3389 10.0896C71.2139 9.97026 71.0619 9.87935 70.8829 9.81685C70.7039 9.75151 70.5008 9.71884 70.2735 9.71884C69.8758 9.71884 69.5391 9.81543 69.2636 10.0086C68.9908 10.2018 68.7835 10.4788 68.6414 10.8396C68.5022 11.2004 68.4326 11.6336 68.4326 12.1393C68.4326 12.6734 68.5036 13.1208 68.6457 13.4816C68.7906 13.8396 68.9994 14.1095 69.2721 14.2913C69.5448 14.4703 69.8729 14.5597 70.2565 14.5597C70.4752 14.5597 70.6712 14.5328 70.8445 14.4788C71.0178 14.422 71.1684 14.341 71.2962 14.2359C71.4241 14.1308 71.5278 14.0044 71.6073 13.8566C71.6897 13.7061 71.7451 13.537 71.7735 13.3495L74.1769 13.3666C74.1485 13.7359 74.0448 14.1123 73.8658 14.4958C73.6869 14.8765 73.4326 15.2288 73.1031 15.5526C72.7764 15.8737 72.3715 16.1322 71.8886 16.3282C71.4056 16.5242 70.8445 16.6222 70.2053 16.6222C69.4042 16.6222 68.6854 16.4504 68.0491 16.1066C67.4156 15.7629 66.9141 15.2572 66.5448 14.5896C66.1783 13.922 65.9951 13.1052 65.9951 12.1393C65.9951 11.1677 66.1826 10.3495 66.5576 9.68475C66.9326 9.01713 67.4383 8.51287 68.0747 8.17196C68.711 7.82821 69.4212 7.65634 70.2053 7.65634C70.7565 7.65634 71.2636 7.73162 71.7266 7.88219C72.1897 8.03276 72.596 8.25293 72.9454 8.5427C73.2948 8.82963 73.5761 9.18333 73.7891 9.60378C74.0022 10.0242 74.1315 10.5058 74.1769 11.0484ZM78.8212 7.77566V16.5029H76.4519V7.77566H78.8212ZM81.144 16.5029V7.77566H87.4338V9.68475H83.5134V11.1847H87.11V13.0938H83.5134V14.5938H87.4168V16.5029H81.144ZM83.5475 6.95747L82.269 5.04838H84.2804L85.0986 6.95747H83.5475ZM89.8089 16.5029V7.77566H93.5759C94.2237 7.77566 94.7904 7.89355 95.2762 8.12935C95.762 8.36515 96.1399 8.70463 96.4097 9.14782C96.6796 9.591 96.8146 10.1222 96.8146 10.7416C96.8146 11.3666 96.6754 11.8936 96.397 12.3225C96.1214 12.7515 95.7336 13.0754 95.2336 13.2941C94.7364 13.5129 94.1555 13.6222 93.4907 13.6222H91.2407V11.7813H93.0134C93.2918 11.7813 93.5291 11.7472 93.7251 11.6791C93.9239 11.608 94.0759 11.4958 94.181 11.3424C94.289 11.189 94.343 10.9887 94.343 10.7416C94.343 10.4916 94.289 10.2884 94.181 10.1322C94.0759 9.9731 93.9239 9.85662 93.7251 9.78276C93.5291 9.70605 93.2918 9.6677 93.0134 9.6677H92.1782V16.5029H89.8089ZM94.9225 12.4972L97.1043 16.5029H94.5305L92.3998 12.4972H94.9225ZM99.0245 16.5029V7.77566H105.314V9.68475H101.394V11.1847H104.99V13.0938H101.394V14.5938H105.297V16.5029H99.0245ZM37.1987 31.5029V22.7757H40.9658C41.6135 22.7757 42.1803 22.8936 42.6661 23.1293C43.1519 23.3651 43.5297 23.7046 43.7996 24.1478C44.0695 24.591 44.2044 25.1222 44.2044 25.7416C44.2044 26.3666 44.0652 26.8936 43.7868 27.3225C43.5112 27.7515 43.1234 28.0754 42.6234 28.2941C42.1263 28.5129 41.5453 28.6222 40.8805 28.6222H38.6305V26.7813H40.4033C40.6817 26.7813 40.9189 26.7472 41.1149 26.6791C41.3138 26.608 41.4658 26.4958 41.5709 26.3424C41.6788 26.189 41.7328 25.9887 41.7328 25.7416C41.7328 25.4916 41.6788 25.2884 41.5709 25.1322C41.4658 24.9731 41.3138 24.8566 41.1149 24.7828C40.9189 24.7061 40.6817 24.6677 40.4033 24.6677H39.568V31.5029H37.1987ZM42.3124 27.4972L44.4942 31.5029H41.9203L39.7896 27.4972H42.3124ZM46.4144 31.5029V22.7757H52.7041V24.6847H48.7837V26.1847H52.3803V28.0938H48.7837V29.5938H52.6871V31.5029H46.4144ZM62.6303 22.7757V31.5029H60.6531L57.4997 26.9177H57.4485V31.5029H55.0792V22.7757H57.0906L60.1928 27.3438H60.261V22.7757H62.6303ZM67.2181 31.5029H64.6613L67.542 22.7757H70.7806L73.6613 31.5029H71.1045L69.1954 25.1791H69.1272L67.2181 31.5029ZM66.7408 28.0597H71.5477V29.8325H66.7408V28.0597ZM78.0712 22.7757V31.5029H75.7019V22.7757H78.0712ZM85.0986 25.5029C85.0759 25.2188 84.9693 24.9972 84.779 24.8382C84.5915 24.6791 84.306 24.5995 83.9225 24.5995C83.6781 24.5995 83.4778 24.6293 83.3216 24.689C83.1682 24.7458 83.0546 24.824 82.9807 24.9234C82.9068 25.0228 82.8685 25.1365 82.8656 25.2643C82.86 25.3694 82.8784 25.4646 82.921 25.5498C82.9665 25.6322 83.0375 25.7075 83.1341 25.7757C83.2307 25.841 83.3543 25.9007 83.5048 25.9546C83.6554 26.0086 83.8344 26.0569 84.0418 26.0995L84.7577 26.2529C85.2406 26.3552 85.654 26.4901 85.9977 26.6578C86.3415 26.8254 86.6227 27.0228 86.8415 27.2501C87.0602 27.4745 87.2207 27.7274 87.323 28.0086C87.4281 28.2899 87.4821 28.5967 87.485 28.9291C87.4821 29.5029 87.3386 29.9887 87.0546 30.3865C86.7705 30.7842 86.3642 31.0867 85.8358 31.2941C85.3102 31.5015 84.6781 31.6052 83.9395 31.6052C83.181 31.6052 82.519 31.493 81.9537 31.2686C81.3912 31.0441 80.9537 30.699 80.6412 30.233C80.3315 29.7643 80.1753 29.1649 80.1725 28.4347H82.4225C82.4367 28.7018 82.5034 28.9262 82.6227 29.108C82.7421 29.2899 82.9097 29.4276 83.1256 29.5214C83.3443 29.6151 83.6043 29.662 83.9054 29.662C84.1582 29.662 84.3699 29.6308 84.5404 29.5683C84.7108 29.5058 84.8401 29.4191 84.9281 29.3083C85.0162 29.1975 85.0617 29.0711 85.0645 28.9291C85.0617 28.7955 85.0176 28.6791 84.9324 28.5796C84.85 28.4774 84.7136 28.3865 84.5233 28.3069C84.333 28.2245 84.0759 28.1478 83.752 28.0768L82.8827 27.8893C82.11 27.7217 81.5006 27.4418 81.0546 27.0498C80.6114 26.6549 80.3912 26.1166 80.394 25.4347C80.3912 24.8808 80.5389 24.3964 80.8372 23.9816C81.1384 23.564 81.5546 23.2387 82.0858 23.0058C82.6199 22.7728 83.2321 22.6563 83.9225 22.6563C84.627 22.6563 85.2364 22.7742 85.7506 23.01C86.2648 23.2458 86.6611 23.5782 86.9395 24.0072C87.2207 24.4333 87.3628 24.9319 87.3656 25.5029H85.0986ZM94.2908 25.5029C94.268 25.2188 94.1615 24.9972 93.9712 24.8382C93.7837 24.6791 93.4982 24.5995 93.1146 24.5995C92.8703 24.5995 92.67 24.6293 92.5138 24.689C92.3604 24.7458 92.2467 24.824 92.1729 24.9234C92.099 25.0228 92.0607 25.1365 92.0578 25.2643C92.0521 25.3694 92.0706 25.4646 92.1132 25.5498C92.1587 25.6322 92.2297 25.7075 92.3263 25.7757C92.4229 25.841 92.5465 25.9007 92.697 25.9546C92.8476 26.0086 93.0266 26.0569 93.234 26.0995L93.9499 26.2529C94.4328 26.3552 94.8462 26.4901 95.1899 26.6578C95.5337 26.8254 95.8149 27.0228 96.0337 27.2501C96.2524 27.4745 96.4129 27.7274 96.5152 28.0086C96.6203 28.2899 96.6743 28.5967 96.6771 28.9291C96.6743 29.5029 96.5308 29.9887 96.2467 30.3865C95.9627 30.7842 95.5564 31.0867 95.028 31.2941C94.5024 31.5015 93.8703 31.6052 93.1317 31.6052C92.3732 31.6052 91.7112 31.493 91.1459 31.2686C90.5834 31.0441 90.1459 30.699 89.8334 30.233C89.5237 29.7643 89.3675 29.1649 89.3646 28.4347H91.6146C91.6288 28.7018 91.6956 28.9262 91.8149 29.108C91.9342 29.2899 92.1019 29.4276 92.3178 29.5214C92.5365 29.6151 92.7965 29.662 93.0976 29.662C93.3504 29.662 93.5621 29.6308 93.7325 29.5683C93.903 29.5058 94.0323 29.4191 94.1203 29.3083C94.2084 29.1975 94.2538 29.0711 94.2567 28.9291C94.2538 28.7955 94.2098 28.6791 94.1246 28.5796C94.0422 28.4774 93.9058 28.3865 93.7155 28.3069C93.5252 28.2245 93.268 28.1478 92.9442 28.0768L92.0749 27.8893C91.3021 27.7217 90.6928 27.4418 90.2467 27.0498C89.8036 26.6549 89.5834 26.1166 89.5862 25.4347C89.5834 24.8808 89.7311 24.3964 90.0294 23.9816C90.3305 23.564 90.7467 23.2387 91.278 23.0058C91.8121 22.7728 92.4243 22.6563 93.1146 22.6563C93.8192 22.6563 94.4286 22.7742 94.9428 23.01C95.457 23.2458 95.8533 23.5782 96.1317 24.0072C96.4129 24.4333 96.555 24.9319 96.5578 25.5029H94.2908ZM100.706 31.5029H98.1488L101.029 22.7757H104.268L107.149 31.5029H104.592L102.683 25.1791H102.615L100.706 31.5029ZM100.228 28.0597H105.035V29.8325H100.228V28.0597ZM116.74 22.7757V31.5029H114.763L111.61 26.9177H111.559V31.5029H109.189V22.7757H111.201L114.303 27.3438H114.371V22.7757H116.74ZM127.209 26.0484H124.806C124.789 25.8495 124.743 25.6691 124.669 25.5072C124.598 25.3453 124.499 25.2061 124.371 25.0896C124.246 24.9703 124.094 24.8793 123.915 24.8168C123.736 24.7515 123.533 24.7188 123.306 24.7188C122.908 24.7188 122.571 24.8154 122.296 25.0086C122.023 25.2018 121.815 25.4788 121.673 25.8396C121.534 26.2004 121.465 26.6336 121.465 27.1393C121.465 27.6734 121.536 28.1208 121.678 28.4816C121.823 28.8396 122.031 29.1095 122.304 29.2913C122.577 29.4703 122.905 29.5597 123.289 29.5597C123.507 29.5597 123.703 29.5328 123.877 29.4788C124.05 29.422 124.2 29.341 124.328 29.2359C124.456 29.1308 124.56 29.0044 124.639 28.8566C124.722 28.7061 124.777 28.537 124.806 28.3495L127.209 28.3666C127.181 28.7359 127.077 29.1123 126.898 29.4958C126.719 29.8765 126.465 30.2288 126.135 30.5526C125.808 30.8737 125.404 31.1322 124.921 31.3282C124.438 31.5242 123.877 31.6222 123.237 31.6222C122.436 31.6222 121.717 31.4504 121.081 31.1066C120.448 30.7629 119.946 30.2572 119.577 29.5896C119.21 28.922 119.027 28.1052 119.027 27.1393C119.027 26.1677 119.215 25.3495 119.59 24.6847C119.965 24.0171 120.47 23.5129 121.107 23.172C121.743 22.8282 122.453 22.6563 123.237 22.6563C123.789 22.6563 124.296 22.7316 124.759 22.8822C125.222 23.0328 125.628 23.2529 125.977 23.5427C126.327 23.8296 126.608 24.1833 126.821 24.6038C127.034 25.0242 127.164 25.5058 127.209 26.0484ZM129.484 31.5029V22.7757H135.774V24.6847H131.853V26.1847H135.45V28.0938H131.853V29.5938H135.757V31.5029H129.484Z" fill="#F3F2F0"/>
</svg>
